# xmcd CD database file generated by Grip 2.96
# 
# Track frame offsets:
#       150
#       15230
#       29067
#       49782
#       64507
#       79577
#       96102
#       117890
#       135097
#       150172
# 
# Disc length: 2251 seconds
# 
# Revision: 0
# Processed by: cddbd v1.4PL0 Copyright (c) Steve Scherf et al.
# Submitted via: Grip 2.96
# 
DISCID=6608c90a
DTITLE=Eddie "Cleanhead" Vinson - Kidney Stew is fine
DYEAR=1900
DGENRE=
TTITLE0=Somebody Sure Has Got To Go
TTITLE1=Old Kidney Stew Is Fine
TTITLE2=Juice Head Baby
TTITLE3=Wait A Minute Baby
TTITLE4=I'm In An Awful Mood
TTITLE5=Just A Dream
TTITLE6=Things Ain't What They Used To Be
TTITLE7=Old Maid Boogie
TTITLE8=Wee Baby Blues
TTITLE9=Please Send Me Someone To Love
EXTD=
EXTT0=
EXTT1=
EXTT2=
EXTT3=
EXTT4=
EXTT5=
EXTT6=
EXTT7=
EXTT8=
EXTT9=
PLAYORDER=
